<mxfile host="app.diagrams.net" modified="2024-07-06T09:17:00.077Z" agent="Mozilla/5.0 (Macintosh; Intel Mac OS X 10_15_7) AppleWebKit/537.36 (KHTML, like Gecko) Chrome/119.0.0.0 Safari/537.36" version="24.6.4" etag="0g2bw7hABUyQV3IhCCXW" type="github" pages="14">
  <diagram id="oRNN-zSzG9cJebJDm6hJ" name="arrow">
    <mxGraphModel dx="1592" dy="4326" grid="1" gridSize="10" guides="1" tooltips="1" connect="1" arrows="1" fold="1" page="1" pageScale="1" pageWidth="827" pageHeight="1169" math="0" shadow="0">
      <root>
        <mxCell id="0" />
        <mxCell id="1" parent="0" />
        <mxCell id="EtvrNQNIiaBIp_oZrtTh-1" value="状態：素人" style="swimlane;whiteSpace=wrap;html=1;" parent="1" vertex="1">
          <mxGeometry x="410" y="110" width="330" height="280" as="geometry" />
        </mxCell>
        <mxCell id="EtvrNQNIiaBIp_oZrtTh-2" value="Docker" style="rounded=1;fillColor=#10739E;strokeColor=none;shadow=0;gradientColor=none;fontStyle=1;fontColor=#FFFFFF;fontSize=14;" parent="EtvrNQNIiaBIp_oZrtTh-1" vertex="1">
          <mxGeometry x="9.999999999999886" y="40" width="69.68" height="70" as="geometry" />
        </mxCell>
        <mxCell id="EtvrNQNIiaBIp_oZrtTh-3" value="Vim" style="rounded=1;fillColor=#019e95;strokeColor=none;shadow=0;gradientColor=none;fontStyle=1;fontColor=#FFFFFF;fontSize=14;" parent="EtvrNQNIiaBIp_oZrtTh-1" vertex="1">
          <mxGeometry x="120.00000000000001" y="60" width="69.79" height="70" as="geometry" />
        </mxCell>
        <mxCell id="EtvrNQNIiaBIp_oZrtTh-4" value="Haskell" style="rounded=1;fillColor=#66B2FF;strokeColor=none;shadow=0;gradientColor=none;fontStyle=1;fontColor=#FFFFFF;fontSize=14;" parent="EtvrNQNIiaBIp_oZrtTh-1" vertex="1">
          <mxGeometry x="31.360000000000014" y="150" width="68.75" height="70" as="geometry" />
        </mxCell>
        <mxCell id="EtvrNQNIiaBIp_oZrtTh-5" value="Agile" style="rounded=1;fillColor=#109e81;strokeColor=none;shadow=0;gradientColor=none;fontStyle=1;fontColor=#FFFFFF;fontSize=14;" parent="EtvrNQNIiaBIp_oZrtTh-1" vertex="1">
          <mxGeometry x="150" y="160" width="71.72" height="70" as="geometry" />
        </mxCell>
        <mxCell id="EtvrNQNIiaBIp_oZrtTh-6" value="UIUX" style="rounded=1;fillColor=#6666FF;strokeColor=#6666FF;shadow=0;gradientColor=none;fontStyle=1;fontColor=#FFFFFF;fontSize=14;" parent="EtvrNQNIiaBIp_oZrtTh-1" vertex="1">
          <mxGeometry x="240" y="170" width="69.79" height="70" as="geometry" />
        </mxCell>
        <mxCell id="EtvrNQNIiaBIp_oZrtTh-7" value="ラポール&#xa;形成" style="rounded=1;fillColor=#6666FF;strokeColor=#6666FF;shadow=0;gradientColor=none;fontStyle=1;fontColor=#FFFFFF;fontSize=14;" parent="EtvrNQNIiaBIp_oZrtTh-1" vertex="1">
          <mxGeometry x="230" y="60" width="68.75" height="70" as="geometry" />
        </mxCell>
        <mxCell id="EtvrNQNIiaBIp_oZrtTh-9" value="状態：素人" style="swimlane;whiteSpace=wrap;html=1;" parent="1" vertex="1">
          <mxGeometry x="40" y="110" width="330" height="280" as="geometry" />
        </mxCell>
        <mxCell id="EtvrNQNIiaBIp_oZrtTh-10" value="Docker" style="rounded=1;fillColor=#10739E;strokeColor=none;shadow=0;gradientColor=none;fontStyle=1;fontColor=#FFFFFF;fontSize=14;" parent="EtvrNQNIiaBIp_oZrtTh-9" vertex="1">
          <mxGeometry x="79.99999999999989" y="160" width="69.68" height="70" as="geometry" />
        </mxCell>
        <mxCell id="EtvrNQNIiaBIp_oZrtTh-13" value="圏" style="swimlane;whiteSpace=wrap;html=1;" parent="EtvrNQNIiaBIp_oZrtTh-9" vertex="1">
          <mxGeometry x="199.79" y="40" width="105" height="110" as="geometry" />
        </mxCell>
        <mxCell id="EtvrNQNIiaBIp_oZrtTh-14" value="ラポール&#xa;形成" style="rounded=1;fillColor=#6666FF;strokeColor=#6666FF;shadow=0;gradientColor=none;fontStyle=1;fontColor=#FFFFFF;fontSize=14;" parent="EtvrNQNIiaBIp_oZrtTh-13" vertex="1">
          <mxGeometry x="18.120000000000108" y="30" width="68.75" height="70" as="geometry" />
        </mxCell>
        <mxCell id="EtvrNQNIiaBIp_oZrtTh-15" value="圏" style="swimlane;whiteSpace=wrap;html=1;" parent="EtvrNQNIiaBIp_oZrtTh-9" vertex="1">
          <mxGeometry x="30" y="40" width="105" height="110" as="geometry" />
        </mxCell>
        <mxCell id="EtvrNQNIiaBIp_oZrtTh-16" value="Vim" style="rounded=1;fillColor=#019e95;strokeColor=none;shadow=0;gradientColor=none;fontStyle=1;fontColor=#FFFFFF;fontSize=14;" parent="EtvrNQNIiaBIp_oZrtTh-15" vertex="1">
          <mxGeometry x="17.080000000000013" y="30" width="69.79" height="70" as="geometry" />
        </mxCell>
        <mxCell id="EtvrNQNIiaBIp_oZrtTh-17" value="UIUX" style="rounded=1;fillColor=#6666FF;strokeColor=#6666FF;shadow=0;gradientColor=none;fontStyle=1;fontColor=#FFFFFF;fontSize=14;" parent="EtvrNQNIiaBIp_oZrtTh-9" vertex="1">
          <mxGeometry x="235.00000000000006" y="200" width="69.79" height="70" as="geometry" />
        </mxCell>
        <mxCell id="EtvrNQNIiaBIp_oZrtTh-11" value="圏論" style="rounded=1;fillColor=#66B2FF;strokeColor=none;shadow=0;gradientColor=none;fontStyle=1;fontColor=#FFFFFF;fontSize=14;" parent="EtvrNQNIiaBIp_oZrtTh-9" vertex="1">
          <mxGeometry x="180" y="160" width="68.75" height="70" as="geometry" />
        </mxCell>
        <mxCell id="EtvrNQNIiaBIp_oZrtTh-12" value="Agile" style="rounded=1;fillColor=#109e81;strokeColor=none;shadow=0;gradientColor=none;fontStyle=1;fontColor=#FFFFFF;fontSize=14;" parent="EtvrNQNIiaBIp_oZrtTh-9" vertex="1">
          <mxGeometry y="200" width="71.72" height="70" as="geometry" />
        </mxCell>
        <mxCell id="EtvrNQNIiaBIp_oZrtTh-19" value="状態：圏論" style="swimlane;whiteSpace=wrap;html=1;" parent="1" vertex="1">
          <mxGeometry x="40" y="-260" width="320" height="280" as="geometry" />
        </mxCell>
        <mxCell id="EtvrNQNIiaBIp_oZrtTh-20" value="射" style="swimlane;whiteSpace=wrap;html=1;" parent="EtvrNQNIiaBIp_oZrtTh-19" vertex="1">
          <mxGeometry x="200" y="160" width="105" height="110" as="geometry" />
        </mxCell>
        <mxCell id="EtvrNQNIiaBIp_oZrtTh-21" value="" style="endArrow=classic;html=1;rounded=0;fillColor=#6666FF;shape=flexArrow;width=3;endSize=7.17;endWidth=6;strokeColor=none;" parent="EtvrNQNIiaBIp_oZrtTh-20" edge="1">
          <mxGeometry relative="1" as="geometry">
            <mxPoint x="2.5" y="64.5" as="sourcePoint" />
            <mxPoint x="102.5" y="64.5" as="targetPoint" />
          </mxGeometry>
        </mxCell>
        <mxCell id="EtvrNQNIiaBIp_oZrtTh-22" value="ラポール形成" style="edgeLabel;resizable=0;html=1;align=center;verticalAlign=middle;" parent="EtvrNQNIiaBIp_oZrtTh-21" connectable="0" vertex="1">
          <mxGeometry relative="1" as="geometry" />
        </mxCell>
        <mxCell id="EtvrNQNIiaBIp_oZrtTh-23" value="射" style="swimlane;whiteSpace=wrap;html=1;" parent="EtvrNQNIiaBIp_oZrtTh-19" vertex="1">
          <mxGeometry x="30" y="160" width="105" height="110" as="geometry" />
        </mxCell>
        <mxCell id="EtvrNQNIiaBIp_oZrtTh-24" value="" style="endArrow=classic;html=1;rounded=0;fillColor=#019e95;shape=flexArrow;width=3;endSize=7.17;endWidth=6;strokeColor=none;" parent="EtvrNQNIiaBIp_oZrtTh-23" edge="1">
          <mxGeometry relative="1" as="geometry">
            <mxPoint x="2.5" y="64.5" as="sourcePoint" />
            <mxPoint x="102.5" y="64.5" as="targetPoint" />
          </mxGeometry>
        </mxCell>
        <mxCell id="EtvrNQNIiaBIp_oZrtTh-25" value="Vim" style="edgeLabel;resizable=0;html=1;align=center;verticalAlign=middle;" parent="EtvrNQNIiaBIp_oZrtTh-24" connectable="0" vertex="1">
          <mxGeometry relative="1" as="geometry" />
        </mxCell>
        <mxCell id="EtvrNQNIiaBIp_oZrtTh-28" value="射" style="swimlane;whiteSpace=wrap;html=1;" parent="EtvrNQNIiaBIp_oZrtTh-19" vertex="1">
          <mxGeometry x="29.99999999999997" y="40" width="105" height="110" as="geometry" />
        </mxCell>
        <mxCell id="EtvrNQNIiaBIp_oZrtTh-29" value="" style="endArrow=classic;html=1;rounded=0;fillColor=#109E81;shape=flexArrow;width=3;endSize=7.17;endWidth=6;strokeColor=none;" parent="EtvrNQNIiaBIp_oZrtTh-28" edge="1">
          <mxGeometry relative="1" as="geometry">
            <mxPoint x="2.5" y="64.5" as="sourcePoint" />
            <mxPoint x="102.5" y="64.5" as="targetPoint" />
          </mxGeometry>
        </mxCell>
        <mxCell id="EtvrNQNIiaBIp_oZrtTh-30" value="Agile" style="edgeLabel;resizable=0;html=1;align=center;verticalAlign=middle;" parent="EtvrNQNIiaBIp_oZrtTh-29" connectable="0" vertex="1">
          <mxGeometry relative="1" as="geometry" />
        </mxCell>
        <mxCell id="EtvrNQNIiaBIp_oZrtTh-26" value="" style="endArrow=classic;html=1;rounded=0;fillColor=#66B2FF;shape=flexArrow;width=3;endSize=7.17;endWidth=6;strokeColor=none;exitX=1;exitY=0.5;exitDx=0;exitDy=0;entryX=0;entryY=0.5;entryDx=0;entryDy=0;" parent="EtvrNQNIiaBIp_oZrtTh-19" edge="1">
          <mxGeometry relative="1" as="geometry">
            <mxPoint x="170" y="94.5" as="sourcePoint" />
            <mxPoint x="280" y="94.5" as="targetPoint" />
          </mxGeometry>
        </mxCell>
        <mxCell id="EtvrNQNIiaBIp_oZrtTh-27" value="圏論" style="edgeLabel;resizable=0;html=1;align=center;verticalAlign=middle;" parent="EtvrNQNIiaBIp_oZrtTh-26" connectable="0" vertex="1">
          <mxGeometry relative="1" as="geometry" />
        </mxCell>
        <mxCell id="EtvrNQNIiaBIp_oZrtTh-31" value="" style="endArrow=classic;html=1;rounded=0;fillColor=#66B2FF;shape=flexArrow;width=3;endSize=7.17;endWidth=6;strokeColor=none;exitX=0.5;exitY=0;exitDx=0;exitDy=0;" parent="1" source="EtvrNQNIiaBIp_oZrtTh-13" edge="1">
          <mxGeometry relative="1" as="geometry">
            <mxPoint x="293" y="150" as="sourcePoint" />
            <mxPoint x="293" y="10" as="targetPoint" />
          </mxGeometry>
        </mxCell>
        <mxCell id="EtvrNQNIiaBIp_oZrtTh-32" value="関手" style="edgeLabel;resizable=0;html=1;align=center;verticalAlign=middle;" parent="EtvrNQNIiaBIp_oZrtTh-31" connectable="0" vertex="1">
          <mxGeometry relative="1" as="geometry" />
        </mxCell>
        <mxCell id="EtvrNQNIiaBIp_oZrtTh-33" value="" style="endArrow=classic;html=1;rounded=0;fillColor=#66B2FF;shape=flexArrow;width=3;endSize=7.17;endWidth=6;strokeColor=none;exitX=0.5;exitY=0;exitDx=0;exitDy=0;" parent="1" source="EtvrNQNIiaBIp_oZrtTh-15" target="EtvrNQNIiaBIp_oZrtTh-23" edge="1">
          <mxGeometry relative="1" as="geometry">
            <mxPoint x="740" y="54.47000000000003" as="sourcePoint" />
            <mxPoint x="830" y="50" as="targetPoint" />
          </mxGeometry>
        </mxCell>
        <mxCell id="EtvrNQNIiaBIp_oZrtTh-34" value="関手" style="edgeLabel;resizable=0;html=1;align=center;verticalAlign=middle;" parent="EtvrNQNIiaBIp_oZrtTh-33" connectable="0" vertex="1">
          <mxGeometry relative="1" as="geometry" />
        </mxCell>
        <mxCell id="EtvrNQNIiaBIp_oZrtTh-35" value="状態：圏論による独自理論の構築" style="swimlane;whiteSpace=wrap;html=1;" parent="1" vertex="1">
          <mxGeometry x="40" y="-560" width="590" height="280" as="geometry" />
        </mxCell>
        <mxCell id="EtvrNQNIiaBIp_oZrtTh-36" value="" style="endArrow=classic;html=1;rounded=0;fillColor=#66B2FF;shape=flexArrow;width=3;endSize=7.17;endWidth=6;strokeColor=none;exitX=1;exitY=0.5;exitDx=0;exitDy=0;entryX=0;entryY=0.5;entryDx=0;entryDy=0;" parent="EtvrNQNIiaBIp_oZrtTh-35" source="EtvrNQNIiaBIp_oZrtTh-43" target="EtvrNQNIiaBIp_oZrtTh-44" edge="1">
          <mxGeometry relative="1" as="geometry">
            <mxPoint x="67.99999999998772" y="159.57999999999976" as="sourcePoint" />
            <mxPoint x="130" y="160" as="targetPoint" />
          </mxGeometry>
        </mxCell>
        <mxCell id="EtvrNQNIiaBIp_oZrtTh-37" value="圏論" style="edgeLabel;resizable=0;html=1;align=center;verticalAlign=middle;" parent="EtvrNQNIiaBIp_oZrtTh-36" connectable="0" vertex="1">
          <mxGeometry relative="1" as="geometry" />
        </mxCell>
        <mxCell id="EtvrNQNIiaBIp_oZrtTh-38" value="" style="endArrow=classic;html=1;rounded=0;fillColor=#019e95;shape=flexArrow;width=3;endSize=7.17;endWidth=6;strokeColor=none;exitX=1;exitY=0.5;exitDx=0;exitDy=0;" parent="EtvrNQNIiaBIp_oZrtTh-35" edge="1">
          <mxGeometry relative="1" as="geometry">
            <mxPoint x="61.99999999994952" y="80" as="sourcePoint" />
            <mxPoint x="120" y="80" as="targetPoint" />
          </mxGeometry>
        </mxCell>
        <mxCell id="EtvrNQNIiaBIp_oZrtTh-39" value="Vim" style="edgeLabel;resizable=0;html=1;align=center;verticalAlign=middle;" parent="EtvrNQNIiaBIp_oZrtTh-38" connectable="0" vertex="1">
          <mxGeometry relative="1" as="geometry" />
        </mxCell>
        <mxCell id="EtvrNQNIiaBIp_oZrtTh-40" value="" style="endArrow=classic;html=1;rounded=0;fillColor=#6666FF;shape=flexArrow;width=3;endSize=7.17;endWidth=6;strokeColor=none;" parent="EtvrNQNIiaBIp_oZrtTh-35" edge="1">
          <mxGeometry relative="1" as="geometry">
            <mxPoint x="120" y="80" as="sourcePoint" />
            <mxPoint x="220" y="80" as="targetPoint" />
          </mxGeometry>
        </mxCell>
        <mxCell id="EtvrNQNIiaBIp_oZrtTh-41" value="ラポール形成" style="edgeLabel;resizable=0;html=1;align=center;verticalAlign=middle;" parent="EtvrNQNIiaBIp_oZrtTh-40" connectable="0" vertex="1">
          <mxGeometry relative="1" as="geometry" />
        </mxCell>
        <mxCell id="EtvrNQNIiaBIp_oZrtTh-42" value="&lt;font style=&quot;font-size: 14px;&quot;&gt;何もない&lt;br&gt;&lt;/font&gt;" style="text;html=1;strokeColor=none;fillColor=none;align=center;verticalAlign=middle;whiteSpace=wrap;rounded=0;" parent="EtvrNQNIiaBIp_oZrtTh-35" vertex="1">
          <mxGeometry x="10" y="60" width="40" height="40" as="geometry" />
        </mxCell>
        <mxCell id="EtvrNQNIiaBIp_oZrtTh-43" value="&lt;font style=&quot;&quot;&gt;&lt;font style=&quot;font-size: 12px;&quot;&gt;カオス&lt;/font&gt;&lt;br&gt;&lt;/font&gt;" style="text;html=1;strokeColor=none;fillColor=none;align=center;verticalAlign=middle;whiteSpace=wrap;rounded=0;" parent="EtvrNQNIiaBIp_oZrtTh-35" vertex="1">
          <mxGeometry x="10" y="140" width="40" height="40" as="geometry" />
        </mxCell>
        <mxCell id="EtvrNQNIiaBIp_oZrtTh-44" value="プロジェクト計画の確立" style="swimlane;whiteSpace=wrap;html=1;" parent="EtvrNQNIiaBIp_oZrtTh-35" vertex="1">
          <mxGeometry x="130" y="110" width="440" height="100" as="geometry" />
        </mxCell>
        <mxCell id="EtvrNQNIiaBIp_oZrtTh-45" value="" style="endArrow=classic;html=1;rounded=0;fillColor=#6666FF;shape=flexArrow;width=3;endSize=7.17;endWidth=6;strokeColor=none;" parent="EtvrNQNIiaBIp_oZrtTh-44" edge="1">
          <mxGeometry relative="1" as="geometry">
            <mxPoint x="60" y="60" as="sourcePoint" />
            <mxPoint x="160" y="60" as="targetPoint" />
          </mxGeometry>
        </mxCell>
        <mxCell id="EtvrNQNIiaBIp_oZrtTh-46" value="ラポール形成" style="edgeLabel;resizable=0;html=1;align=center;verticalAlign=middle;" parent="EtvrNQNIiaBIp_oZrtTh-45" connectable="0" vertex="1">
          <mxGeometry relative="1" as="geometry" />
        </mxCell>
        <mxCell id="EtvrNQNIiaBIp_oZrtTh-47" value="" style="endArrow=classic;html=1;rounded=0;fillColor=#109E81;shape=flexArrow;width=3;endSize=7.17;endWidth=6;strokeColor=none;" parent="EtvrNQNIiaBIp_oZrtTh-44" edge="1">
          <mxGeometry relative="1" as="geometry">
            <mxPoint x="160" y="60" as="sourcePoint" />
            <mxPoint x="260" y="60" as="targetPoint" />
          </mxGeometry>
        </mxCell>
        <mxCell id="EtvrNQNIiaBIp_oZrtTh-48" value="Agile" style="edgeLabel;resizable=0;html=1;align=center;verticalAlign=middle;" parent="EtvrNQNIiaBIp_oZrtTh-47" connectable="0" vertex="1">
          <mxGeometry relative="1" as="geometry" />
        </mxCell>
        <mxCell id="EtvrNQNIiaBIp_oZrtTh-49" value="&lt;font style=&quot;&quot;&gt;&lt;font style=&quot;font-size: 12px;&quot;&gt;要件&lt;br&gt;&lt;/font&gt;整理&lt;br&gt;&lt;/font&gt;" style="text;html=1;strokeColor=none;fillColor=none;align=center;verticalAlign=middle;whiteSpace=wrap;rounded=0;" parent="EtvrNQNIiaBIp_oZrtTh-44" vertex="1">
          <mxGeometry x="260" y="40" width="40" height="40" as="geometry" />
        </mxCell>
        <mxCell id="4WUHIGS_B5dh8i_6RRQe-1" value="状態：圏論からのスキル化" style="swimlane;whiteSpace=wrap;html=1;" parent="1" vertex="1">
          <mxGeometry x="40" y="-880" width="660" height="280" as="geometry" />
        </mxCell>
        <mxCell id="4WUHIGS_B5dh8i_6RRQe-2" value="" style="endArrow=classic;html=1;rounded=0;fillColor=#66B2FF;shape=flexArrow;width=3;endSize=7.17;endWidth=6;strokeColor=none;exitX=1;exitY=0.5;exitDx=0;exitDy=0;entryX=0;entryY=0.5;entryDx=0;entryDy=0;" parent="4WUHIGS_B5dh8i_6RRQe-1" source="4WUHIGS_B5dh8i_6RRQe-9" target="4WUHIGS_B5dh8i_6RRQe-10" edge="1">
          <mxGeometry relative="1" as="geometry">
            <mxPoint x="67.99999999998772" y="159.57999999999976" as="sourcePoint" />
            <mxPoint x="130" y="160" as="targetPoint" />
          </mxGeometry>
        </mxCell>
        <mxCell id="4WUHIGS_B5dh8i_6RRQe-3" value="圏論" style="edgeLabel;resizable=0;html=1;align=center;verticalAlign=middle;" parent="4WUHIGS_B5dh8i_6RRQe-2" connectable="0" vertex="1">
          <mxGeometry relative="1" as="geometry" />
        </mxCell>
        <mxCell id="4WUHIGS_B5dh8i_6RRQe-4" value="" style="endArrow=classic;html=1;rounded=0;fillColor=#019e95;shape=flexArrow;width=3;endSize=7.17;endWidth=6;strokeColor=none;exitX=1;exitY=0.5;exitDx=0;exitDy=0;" parent="4WUHIGS_B5dh8i_6RRQe-1" edge="1">
          <mxGeometry relative="1" as="geometry">
            <mxPoint x="61.99999999994952" y="80" as="sourcePoint" />
            <mxPoint x="120" y="80" as="targetPoint" />
          </mxGeometry>
        </mxCell>
        <mxCell id="4WUHIGS_B5dh8i_6RRQe-5" value="Vim" style="edgeLabel;resizable=0;html=1;align=center;verticalAlign=middle;" parent="4WUHIGS_B5dh8i_6RRQe-4" connectable="0" vertex="1">
          <mxGeometry relative="1" as="geometry" />
        </mxCell>
        <mxCell id="4WUHIGS_B5dh8i_6RRQe-6" value="" style="endArrow=classic;html=1;rounded=0;fillColor=#6666FF;shape=flexArrow;width=3;endSize=7.17;endWidth=6;strokeColor=none;" parent="4WUHIGS_B5dh8i_6RRQe-1" edge="1">
          <mxGeometry relative="1" as="geometry">
            <mxPoint x="120" y="80" as="sourcePoint" />
            <mxPoint x="220" y="80" as="targetPoint" />
          </mxGeometry>
        </mxCell>
        <mxCell id="4WUHIGS_B5dh8i_6RRQe-7" value="ラポール形成" style="edgeLabel;resizable=0;html=1;align=center;verticalAlign=middle;" parent="4WUHIGS_B5dh8i_6RRQe-6" connectable="0" vertex="1">
          <mxGeometry relative="1" as="geometry" />
        </mxCell>
        <mxCell id="4WUHIGS_B5dh8i_6RRQe-8" value="&lt;font style=&quot;font-size: 14px;&quot;&gt;何もない&lt;br&gt;&lt;/font&gt;" style="text;html=1;strokeColor=none;fillColor=none;align=center;verticalAlign=middle;whiteSpace=wrap;rounded=0;" parent="4WUHIGS_B5dh8i_6RRQe-1" vertex="1">
          <mxGeometry x="10" y="60" width="40" height="40" as="geometry" />
        </mxCell>
        <mxCell id="4WUHIGS_B5dh8i_6RRQe-9" value="&lt;font style=&quot;&quot;&gt;&lt;font style=&quot;font-size: 12px;&quot;&gt;カオス&lt;/font&gt;&lt;br&gt;&lt;/font&gt;" style="text;html=1;strokeColor=none;fillColor=none;align=center;verticalAlign=middle;whiteSpace=wrap;rounded=0;" parent="4WUHIGS_B5dh8i_6RRQe-1" vertex="1">
          <mxGeometry x="10" y="140" width="40" height="40" as="geometry" />
        </mxCell>
        <mxCell id="4WUHIGS_B5dh8i_6RRQe-10" value="プロジェクト計画の確立" style="swimlane;whiteSpace=wrap;html=1;" parent="4WUHIGS_B5dh8i_6RRQe-1" vertex="1">
          <mxGeometry x="130" y="110" width="530" height="100" as="geometry" />
        </mxCell>
        <mxCell id="4WUHIGS_B5dh8i_6RRQe-11" value="" style="endArrow=classic;html=1;rounded=0;fillColor=#6666FF;shape=flexArrow;width=3;endSize=7.17;endWidth=6;strokeColor=none;" parent="4WUHIGS_B5dh8i_6RRQe-10" edge="1">
          <mxGeometry relative="1" as="geometry">
            <mxPoint x="60" y="60" as="sourcePoint" />
            <mxPoint x="360" y="60" as="targetPoint" />
          </mxGeometry>
        </mxCell>
        <mxCell id="4WUHIGS_B5dh8i_6RRQe-12" value="終了局面を読み切る" style="edgeLabel;resizable=0;html=1;align=center;verticalAlign=middle;" parent="4WUHIGS_B5dh8i_6RRQe-11" connectable="0" vertex="1">
          <mxGeometry relative="1" as="geometry" />
        </mxCell>
        <mxCell id="MkggtV5wi_TIvpfta4GQ-1" value="状態：圏論からのスキル化" style="swimlane;whiteSpace=wrap;html=1;" parent="1" vertex="1">
          <mxGeometry x="40" y="-1200" width="590" height="289.5" as="geometry" />
        </mxCell>
        <mxCell id="MkggtV5wi_TIvpfta4GQ-4" value="" style="endArrow=classic;html=1;rounded=0;fillColor=#019e95;shape=flexArrow;width=3;endSize=7.17;endWidth=6;strokeColor=none;exitX=1;exitY=0.5;exitDx=0;exitDy=0;" parent="MkggtV5wi_TIvpfta4GQ-1" edge="1">
          <mxGeometry relative="1" as="geometry">
            <mxPoint x="61.99999999994952" y="80" as="sourcePoint" />
            <mxPoint x="120" y="80" as="targetPoint" />
          </mxGeometry>
        </mxCell>
        <mxCell id="MkggtV5wi_TIvpfta4GQ-5" value="Vim" style="edgeLabel;resizable=0;html=1;align=center;verticalAlign=middle;" parent="MkggtV5wi_TIvpfta4GQ-4" connectable="0" vertex="1">
          <mxGeometry relative="1" as="geometry" />
        </mxCell>
        <mxCell id="MkggtV5wi_TIvpfta4GQ-6" value="" style="endArrow=classic;html=1;rounded=0;fillColor=#6666FF;shape=flexArrow;width=3;endSize=7.17;endWidth=6;strokeColor=none;" parent="MkggtV5wi_TIvpfta4GQ-1" edge="1">
          <mxGeometry relative="1" as="geometry">
            <mxPoint x="259.68" y="154.5" as="sourcePoint" />
            <mxPoint x="360" y="190" as="targetPoint" />
          </mxGeometry>
        </mxCell>
        <mxCell id="MkggtV5wi_TIvpfta4GQ-7" value="心理術" style="edgeLabel;resizable=0;html=1;align=center;verticalAlign=middle;" parent="MkggtV5wi_TIvpfta4GQ-6" connectable="0" vertex="1">
          <mxGeometry relative="1" as="geometry" />
        </mxCell>
        <mxCell id="MkggtV5wi_TIvpfta4GQ-8" value="&lt;font style=&quot;font-size: 14px;&quot;&gt;何もない&lt;br&gt;&lt;/font&gt;" style="text;html=1;strokeColor=none;fillColor=none;align=center;verticalAlign=middle;whiteSpace=wrap;rounded=0;" parent="MkggtV5wi_TIvpfta4GQ-1" vertex="1">
          <mxGeometry x="10" y="60" width="40" height="40" as="geometry" />
        </mxCell>
        <mxCell id="dy35aeAQ4Ue6G7NFQhnv-1" value="Docker" style="rounded=1;fillColor=#10739E;strokeColor=none;shadow=0;gradientColor=none;fontStyle=1;fontColor=#FFFFFF;fontSize=14;" parent="MkggtV5wi_TIvpfta4GQ-1" vertex="1">
          <mxGeometry x="39.999999999999886" y="120" width="69.68" height="70" as="geometry" />
        </mxCell>
        <mxCell id="dy35aeAQ4Ue6G7NFQhnv-2" value="" style="endArrow=classic;html=1;rounded=0;fillColor=#66B2FF;shape=flexArrow;width=3;endSize=7.17;endWidth=6;strokeColor=none;exitX=1;exitY=0.5;exitDx=0;exitDy=0;entryX=0;entryY=0.5;entryDx=0;entryDy=0;" parent="MkggtV5wi_TIvpfta4GQ-1" source="dy35aeAQ4Ue6G7NFQhnv-1" target="dy35aeAQ4Ue6G7NFQhnv-4" edge="1">
          <mxGeometry relative="1" as="geometry">
            <mxPoint x="109.68" y="154.5" as="sourcePoint" />
            <mxPoint x="189.68" y="154.5" as="targetPoint" />
          </mxGeometry>
        </mxCell>
        <mxCell id="dy35aeAQ4Ue6G7NFQhnv-3" value="圏論" style="edgeLabel;resizable=0;html=1;align=center;verticalAlign=middle;" parent="dy35aeAQ4Ue6G7NFQhnv-2" connectable="0" vertex="1">
          <mxGeometry relative="1" as="geometry" />
        </mxCell>
        <mxCell id="dy35aeAQ4Ue6G7NFQhnv-4" value="観察力の&#xa;基礎" style="rounded=1;fillColor=#10739E;strokeColor=none;shadow=0;gradientColor=none;fontStyle=1;fontColor=#FFFFFF;fontSize=14;" parent="MkggtV5wi_TIvpfta4GQ-1" vertex="1">
          <mxGeometry x="189.9999999999999" y="120" width="69.68" height="70" as="geometry" />
        </mxCell>
        <mxCell id="Grk3ASspi7itF8LlZDWV-1" value="心理学&#xa;DB" style="rounded=1;fillColor=#6666FF;strokeColor=#6666FF;shadow=0;gradientColor=none;fontStyle=1;fontColor=#FFFFFF;fontSize=14;" parent="MkggtV5wi_TIvpfta4GQ-1" vertex="1">
          <mxGeometry x="190.00000000000006" y="200" width="69.79" height="70" as="geometry" />
        </mxCell>
        <mxCell id="Grk3ASspi7itF8LlZDWV-2" value="" style="endArrow=classic;html=1;rounded=0;fillColor=#6666FF;shape=flexArrow;width=3;endSize=7.17;endWidth=6;strokeColor=none;" parent="MkggtV5wi_TIvpfta4GQ-1" edge="1">
          <mxGeometry relative="1" as="geometry">
            <mxPoint x="259.68" y="234.5" as="sourcePoint" />
            <mxPoint x="360" y="200" as="targetPoint" />
          </mxGeometry>
        </mxCell>
        <mxCell id="Grk3ASspi7itF8LlZDWV-3" value="心理術" style="edgeLabel;resizable=0;html=1;align=center;verticalAlign=middle;" parent="Grk3ASspi7itF8LlZDWV-2" connectable="0" vertex="1">
          <mxGeometry relative="1" as="geometry" />
        </mxCell>
        <mxCell id="Grk3ASspi7itF8LlZDWV-4" value="会議領域" style="swimlane;whiteSpace=wrap;html=1;" parent="MkggtV5wi_TIvpfta4GQ-1" vertex="1">
          <mxGeometry x="330" y="130" width="230" height="159.5" as="geometry" />
        </mxCell>
        <mxCell id="Grk3ASspi7itF8LlZDWV-7" value="" style="endArrow=classic;html=1;rounded=0;fillColor=#6666FF;shape=flexArrow;width=3;endSize=7.17;endWidth=6;strokeColor=none;" parent="1" edge="1">
          <mxGeometry relative="1" as="geometry">
            <mxPoint x="400" y="-960" as="sourcePoint" />
            <mxPoint x="590" y="-960" as="targetPoint" />
          </mxGeometry>
        </mxCell>
        <mxCell id="Grk3ASspi7itF8LlZDWV-8" value="終了局面を読み切る" style="edgeLabel;resizable=0;html=1;align=center;verticalAlign=middle;" parent="Grk3ASspi7itF8LlZDWV-7" connectable="0" vertex="1">
          <mxGeometry relative="1" as="geometry" />
        </mxCell>
        <mxCell id="Grk3ASspi7itF8LlZDWV-9" value="状態：圏論からのスキル化" style="swimlane;whiteSpace=wrap;html=1;" parent="1" vertex="1">
          <mxGeometry x="40" y="-1510" width="760" height="280" as="geometry" />
        </mxCell>
        <mxCell id="Grk3ASspi7itF8LlZDWV-10" value="" style="endArrow=classic;html=1;rounded=0;fillColor=#019e95;shape=flexArrow;width=3;endSize=7.17;endWidth=6;strokeColor=none;exitX=1;exitY=0.5;exitDx=0;exitDy=0;" parent="Grk3ASspi7itF8LlZDWV-9" edge="1">
          <mxGeometry relative="1" as="geometry">
            <mxPoint x="61.99999999994952" y="80" as="sourcePoint" />
            <mxPoint x="120" y="80" as="targetPoint" />
          </mxGeometry>
        </mxCell>
        <mxCell id="Grk3ASspi7itF8LlZDWV-11" value="Vim" style="edgeLabel;resizable=0;html=1;align=center;verticalAlign=middle;" parent="Grk3ASspi7itF8LlZDWV-10" connectable="0" vertex="1">
          <mxGeometry relative="1" as="geometry" />
        </mxCell>
        <mxCell id="Grk3ASspi7itF8LlZDWV-12" value="" style="endArrow=classic;html=1;rounded=0;fillColor=#6666FF;shape=flexArrow;width=3;endSize=7.17;endWidth=6;strokeColor=none;entryX=0;entryY=0.5;entryDx=0;entryDy=0;" parent="Grk3ASspi7itF8LlZDWV-9" target="Grk3ASspi7itF8LlZDWV-22" edge="1">
          <mxGeometry relative="1" as="geometry">
            <mxPoint x="259.68" y="154.5" as="sourcePoint" />
            <mxPoint x="360" y="190" as="targetPoint" />
          </mxGeometry>
        </mxCell>
        <mxCell id="Grk3ASspi7itF8LlZDWV-13" value="心理術" style="edgeLabel;resizable=0;html=1;align=center;verticalAlign=middle;" parent="Grk3ASspi7itF8LlZDWV-12" connectable="0" vertex="1">
          <mxGeometry relative="1" as="geometry" />
        </mxCell>
        <mxCell id="Grk3ASspi7itF8LlZDWV-14" value="&lt;font style=&quot;font-size: 14px;&quot;&gt;何もない&lt;br&gt;&lt;/font&gt;" style="text;html=1;strokeColor=none;fillColor=none;align=center;verticalAlign=middle;whiteSpace=wrap;rounded=0;" parent="Grk3ASspi7itF8LlZDWV-9" vertex="1">
          <mxGeometry x="10" y="60" width="40" height="40" as="geometry" />
        </mxCell>
        <mxCell id="Grk3ASspi7itF8LlZDWV-15" value="Docker" style="rounded=1;fillColor=#10739E;strokeColor=none;shadow=0;gradientColor=none;fontStyle=1;fontColor=#FFFFFF;fontSize=14;" parent="Grk3ASspi7itF8LlZDWV-9" vertex="1">
          <mxGeometry x="39.999999999999886" y="120" width="69.68" height="70" as="geometry" />
        </mxCell>
        <mxCell id="Grk3ASspi7itF8LlZDWV-16" value="" style="endArrow=classic;html=1;rounded=0;fillColor=#66B2FF;shape=flexArrow;width=3;endSize=7.17;endWidth=6;strokeColor=none;exitX=1;exitY=0.5;exitDx=0;exitDy=0;entryX=0;entryY=0.5;entryDx=0;entryDy=0;" parent="Grk3ASspi7itF8LlZDWV-9" source="Grk3ASspi7itF8LlZDWV-15" target="Grk3ASspi7itF8LlZDWV-18" edge="1">
          <mxGeometry relative="1" as="geometry">
            <mxPoint x="109.68" y="154.5" as="sourcePoint" />
            <mxPoint x="189.68" y="154.5" as="targetPoint" />
          </mxGeometry>
        </mxCell>
        <mxCell id="Grk3ASspi7itF8LlZDWV-17" value="圏論" style="edgeLabel;resizable=0;html=1;align=center;verticalAlign=middle;" parent="Grk3ASspi7itF8LlZDWV-16" connectable="0" vertex="1">
          <mxGeometry relative="1" as="geometry" />
        </mxCell>
        <mxCell id="Grk3ASspi7itF8LlZDWV-18" value="観察力の&#xa;基礎" style="rounded=1;fillColor=#10739E;strokeColor=none;shadow=0;gradientColor=none;fontStyle=1;fontColor=#FFFFFF;fontSize=14;" parent="Grk3ASspi7itF8LlZDWV-9" vertex="1">
          <mxGeometry x="189.9999999999999" y="120" width="69.68" height="70" as="geometry" />
        </mxCell>
        <mxCell id="Grk3ASspi7itF8LlZDWV-19" value="心理学&#xa;DB" style="rounded=1;fillColor=#6666FF;strokeColor=#6666FF;shadow=0;gradientColor=none;fontStyle=1;fontColor=#FFFFFF;fontSize=14;" parent="Grk3ASspi7itF8LlZDWV-9" vertex="1">
          <mxGeometry x="190.00000000000006" y="200" width="69.79" height="70" as="geometry" />
        </mxCell>
        <mxCell id="Grk3ASspi7itF8LlZDWV-20" value="" style="endArrow=classic;html=1;rounded=0;fillColor=#6666FF;shape=flexArrow;width=3;endSize=7.17;endWidth=6;strokeColor=none;entryX=0;entryY=0.5;entryDx=0;entryDy=0;" parent="Grk3ASspi7itF8LlZDWV-9" target="Grk3ASspi7itF8LlZDWV-22" edge="1">
          <mxGeometry relative="1" as="geometry">
            <mxPoint x="259.68" y="234.5" as="sourcePoint" />
            <mxPoint x="360" y="200" as="targetPoint" />
          </mxGeometry>
        </mxCell>
        <mxCell id="Grk3ASspi7itF8LlZDWV-21" value="心理術" style="edgeLabel;resizable=0;html=1;align=center;verticalAlign=middle;" parent="Grk3ASspi7itF8LlZDWV-20" connectable="0" vertex="1">
          <mxGeometry relative="1" as="geometry" />
        </mxCell>
        <mxCell id="Grk3ASspi7itF8LlZDWV-22" value="会議領域" style="swimlane;whiteSpace=wrap;html=1;" parent="Grk3ASspi7itF8LlZDWV-9" vertex="1">
          <mxGeometry x="360" y="130" width="390" height="130" as="geometry" />
        </mxCell>
        <mxCell id="4OIpWaBSAvoMjhRQVzah-2" value="本質の把握" style="rounded=1;fillColor=#10739E;strokeColor=none;shadow=0;gradientColor=none;fontStyle=1;fontColor=#FFFFFF;fontSize=14;" parent="Grk3ASspi7itF8LlZDWV-22" vertex="1">
          <mxGeometry x="13.99999999999988" y="40" width="69.68" height="70" as="geometry" />
        </mxCell>
        <mxCell id="4OIpWaBSAvoMjhRQVzah-3" value="誘導" style="rounded=1;fillColor=#6666FF;strokeColor=#6666FF;shadow=0;gradientColor=none;fontStyle=1;fontColor=#FFFFFF;fontSize=14;" parent="Grk3ASspi7itF8LlZDWV-22" vertex="1">
          <mxGeometry x="300" y="40" width="69.79" height="70" as="geometry" />
        </mxCell>
        <mxCell id="4OIpWaBSAvoMjhRQVzah-7" value="" style="endArrow=classic;html=1;rounded=0;fillColor=#019e95;shape=flexArrow;width=3;endSize=7.17;endWidth=6;strokeColor=none;exitX=1;exitY=0.5;exitDx=0;exitDy=0;entryX=0;entryY=0.5;entryDx=0;entryDy=0;" parent="Grk3ASspi7itF8LlZDWV-22" source="4OIpWaBSAvoMjhRQVzah-2" target="4OIpWaBSAvoMjhRQVzah-9" edge="1">
          <mxGeometry relative="1" as="geometry">
            <mxPoint x="109.99999999994952" y="74.5" as="sourcePoint" />
            <mxPoint x="168" y="74.5" as="targetPoint" />
          </mxGeometry>
        </mxCell>
        <mxCell id="4OIpWaBSAvoMjhRQVzah-8" value="AIM" style="edgeLabel;resizable=0;html=1;align=center;verticalAlign=middle;" parent="4OIpWaBSAvoMjhRQVzah-7" connectable="0" vertex="1">
          <mxGeometry relative="1" as="geometry" />
        </mxCell>
        <mxCell id="4OIpWaBSAvoMjhRQVzah-9" value="終了図&#xa;の想像" style="rounded=1;fillColor=#6666FF;strokeColor=#6666FF;shadow=0;gradientColor=none;fontStyle=1;fontColor=#FFFFFF;fontSize=14;" parent="Grk3ASspi7itF8LlZDWV-22" vertex="1">
          <mxGeometry x="160.11" y="40" width="69.79" height="70" as="geometry" />
        </mxCell>
        <mxCell id="4OIpWaBSAvoMjhRQVzah-10" value="" style="endArrow=classic;html=1;rounded=0;fillColor=#6666FF;shape=flexArrow;width=3;endSize=7.17;endWidth=6;strokeColor=none;entryX=0;entryY=0.5;entryDx=0;entryDy=0;exitX=1;exitY=0.5;exitDx=0;exitDy=0;" parent="Grk3ASspi7itF8LlZDWV-22" source="4OIpWaBSAvoMjhRQVzah-9" target="4OIpWaBSAvoMjhRQVzah-3" edge="1">
          <mxGeometry relative="1" as="geometry">
            <mxPoint x="-90.32" y="114.5" as="sourcePoint" />
            <mxPoint x="10" y="75" as="targetPoint" />
          </mxGeometry>
        </mxCell>
        <mxCell id="4OIpWaBSAvoMjhRQVzah-11" value="心理術" style="edgeLabel;resizable=0;html=1;align=center;verticalAlign=middle;" parent="4OIpWaBSAvoMjhRQVzah-10" connectable="0" vertex="1">
          <mxGeometry relative="1" as="geometry" />
        </mxCell>
        <mxCell id="4OIpWaBSAvoMjhRQVzah-4" value="" style="endArrow=classic;html=1;rounded=0;fillColor=#019e95;shape=flexArrow;width=3;endSize=7.17;endWidth=6;strokeColor=none;exitX=1;exitY=0.5;exitDx=0;exitDy=0;" parent="Grk3ASspi7itF8LlZDWV-9" edge="1">
          <mxGeometry relative="1" as="geometry">
            <mxPoint x="179.99999999994952" y="79.5" as="sourcePoint" />
            <mxPoint x="238" y="79.5" as="targetPoint" />
          </mxGeometry>
        </mxCell>
        <mxCell id="4OIpWaBSAvoMjhRQVzah-5" value="AIM" style="edgeLabel;resizable=0;html=1;align=center;verticalAlign=middle;" parent="4OIpWaBSAvoMjhRQVzah-4" connectable="0" vertex="1">
          <mxGeometry relative="1" as="geometry" />
        </mxCell>
        <mxCell id="3vcQB0C9pp6So1rZS9XH-1" value="状態：圏論からのスキル化" style="swimlane;whiteSpace=wrap;html=1;" parent="1" vertex="1">
          <mxGeometry x="40" y="-1980" width="760" height="450" as="geometry" />
        </mxCell>
        <mxCell id="3vcQB0C9pp6So1rZS9XH-6" value="&lt;font style=&quot;font-size: 14px;&quot;&gt;何もない&lt;br&gt;&lt;/font&gt;" style="text;html=1;strokeColor=none;fillColor=none;align=center;verticalAlign=middle;whiteSpace=wrap;rounded=0;" parent="3vcQB0C9pp6So1rZS9XH-1" vertex="1">
          <mxGeometry x="10" y="60" width="40" height="40" as="geometry" />
        </mxCell>
        <mxCell id="3vcQB0C9pp6So1rZS9XH-7" value="有言実行&#xa;できるといったことは&#xa;大体できてしまう" style="rounded=1;fillColor=#10739E;strokeColor=none;shadow=0;gradientColor=none;fontStyle=1;fontColor=#FFFFFF;fontSize=14;" parent="3vcQB0C9pp6So1rZS9XH-1" vertex="1">
          <mxGeometry x="40" y="300" width="160" height="70" as="geometry" />
        </mxCell>
        <mxCell id="3vcQB0C9pp6So1rZS9XH-24" value="デッキの中身&#xa;育てデッキ" style="rounded=1;fillColor=#10739E;strokeColor=none;shadow=0;gradientColor=none;fontStyle=1;fontColor=#FFFFFF;fontSize=14;" parent="3vcQB0C9pp6So1rZS9XH-1" vertex="1">
          <mxGeometry x="190" y="45" width="160" height="70" as="geometry" />
        </mxCell>
        <mxCell id="0A6_qlnSRbyEr8-nvlEl-3" value="適応能力" style="rounded=1;fillColor=#10739E;strokeColor=none;shadow=0;gradientColor=none;fontStyle=1;fontColor=#FFFFFF;fontSize=14;" parent="3vcQB0C9pp6So1rZS9XH-1" vertex="1">
          <mxGeometry x="364" y="45" width="160" height="70" as="geometry" />
        </mxCell>
        <mxCell id="0A6_qlnSRbyEr8-nvlEl-4" value="ゴリラ力" style="rounded=1;fillColor=#10739E;strokeColor=none;shadow=0;gradientColor=none;fontStyle=1;fontColor=#FFFFFF;fontSize=14;" parent="3vcQB0C9pp6So1rZS9XH-1" vertex="1">
          <mxGeometry x="540" y="45" width="160" height="70" as="geometry" />
        </mxCell>
        <mxCell id="0A6_qlnSRbyEr8-nvlEl-5" value="能力的には柔軟性&#xa;精神的にはゴリラ" style="rounded=1;fillColor=#10739E;strokeColor=none;shadow=0;gradientColor=none;fontStyle=1;fontColor=#FFFFFF;fontSize=14;" parent="3vcQB0C9pp6So1rZS9XH-1" vertex="1">
          <mxGeometry x="214" y="300" width="160" height="70" as="geometry" />
        </mxCell>
        <mxCell id="igPosv9aw8RWdcacOeQP-1" value="状態：圏論からのスキル化" style="swimlane;whiteSpace=wrap;html=1;" parent="1" vertex="1">
          <mxGeometry x="40" y="-2730" width="1380" height="730" as="geometry" />
        </mxCell>
        <mxCell id="mrgv56XyLkmAIUHV8rIz-1" value="Adsense" style="rounded=1;fillColor=#333333;strokeColor=none;shadow=0;gradientColor=none;fontStyle=1;fontColor=#FFFFFF;fontSize=14;" parent="igPosv9aw8RWdcacOeQP-1" vertex="1">
          <mxGeometry x="521" y="30" width="70" height="70" as="geometry" />
        </mxCell>
        <mxCell id="6SzB1PvdnZIplH8IDjRf-2" value="ブランド&#xa;お仕事" style="rounded=1;fillColor=#333333;strokeColor=none;shadow=0;gradientColor=none;fontStyle=1;fontColor=#FFFFFF;fontSize=14;" parent="igPosv9aw8RWdcacOeQP-1" vertex="1">
          <mxGeometry x="360" y="30" width="70" height="70" as="geometry" />
        </mxCell>
        <mxCell id="pXqdYK-wdsycdL4smANg-10" value="Tweet" style="rounded=1;fillColor=#10739E;strokeColor=none;shadow=0;gradientColor=none;fontStyle=1;fontColor=#FFFFFF;fontSize=14;" parent="igPosv9aw8RWdcacOeQP-1" vertex="1">
          <mxGeometry x="160" y="170" width="71" height="70" as="geometry" />
        </mxCell>
        <mxCell id="pXqdYK-wdsycdL4smANg-11" value="Internet" style="rounded=1;fillColor=#2E3E52;strokeColor=none;shadow=0;gradientColor=none;fontStyle=1;fontColor=#FFFFFF;fontSize=14;" parent="igPosv9aw8RWdcacOeQP-1" vertex="1">
          <mxGeometry x="365.22" y="570" width="70" height="70" as="geometry" />
        </mxCell>
        <mxCell id="pXqdYK-wdsycdL4smANg-12" style="edgeStyle=orthogonalEdgeStyle;rounded=0;orthogonalLoop=1;jettySize=auto;html=1;entryX=1;entryY=0.5;entryDx=0;entryDy=0;" parent="igPosv9aw8RWdcacOeQP-1" source="pXqdYK-wdsycdL4smANg-13" target="pXqdYK-wdsycdL4smANg-20" edge="1">
          <mxGeometry relative="1" as="geometry" />
        </mxCell>
        <mxCell id="pXqdYK-wdsycdL4smANg-13" value="User" style="shape=umlActor;verticalLabelPosition=bottom;verticalAlign=top;html=1;outlineConnect=0;" parent="igPosv9aw8RWdcacOeQP-1" vertex="1">
          <mxGeometry x="531" y="240" width="30" height="60" as="geometry" />
        </mxCell>
        <mxCell id="pXqdYK-wdsycdL4smANg-14" value="Github Workflow" style="swimlane;fontStyle=0;childLayout=stackLayout;horizontal=1;startSize=30;horizontalStack=0;resizeParent=1;resizeParentMax=0;resizeLast=0;collapsible=1;marginBottom=0;whiteSpace=wrap;html=1;" parent="igPosv9aw8RWdcacOeQP-1" vertex="1">
          <mxGeometry x="281" y="290" width="240" height="240" as="geometry" />
        </mxCell>
        <mxCell id="pXqdYK-wdsycdL4smANg-15" value="サイトを自動ツイート" style="text;strokeColor=none;fillColor=none;align=left;verticalAlign=middle;spacingLeft=4;spacingRight=4;overflow=hidden;points=[[0,0.5],[1,0.5]];portConstraint=eastwest;rotatable=0;whiteSpace=wrap;html=1;" parent="pXqdYK-wdsycdL4smANg-14" vertex="1">
          <mxGeometry y="30" width="240" height="30" as="geometry" />
        </mxCell>
        <mxCell id="pXqdYK-wdsycdL4smANg-16" value="記事に問題があれば削除" style="text;strokeColor=none;fillColor=none;align=left;verticalAlign=middle;spacingLeft=4;spacingRight=4;overflow=hidden;points=[[0,0.5],[1,0.5]];portConstraint=eastwest;rotatable=0;whiteSpace=wrap;html=1;" parent="pXqdYK-wdsycdL4smANg-14" vertex="1">
          <mxGeometry y="60" width="240" height="30" as="geometry" />
        </mxCell>
        <mxCell id="pXqdYK-wdsycdL4smANg-17" value="-" style="text;strokeColor=none;fillColor=none;align=left;verticalAlign=middle;spacingLeft=4;spacingRight=4;overflow=hidden;points=[[0,0.5],[1,0.5]];portConstraint=eastwest;rotatable=0;whiteSpace=wrap;html=1;" parent="pXqdYK-wdsycdL4smANg-14" vertex="1">
          <mxGeometry y="90" width="240" height="30" as="geometry" />
        </mxCell>
        <mxCell id="pXqdYK-wdsycdL4smANg-18" value="そのままリリース" style="text;strokeColor=none;fillColor=none;align=left;verticalAlign=middle;spacingLeft=4;spacingRight=4;overflow=hidden;points=[[0,0.5],[1,0.5]];portConstraint=eastwest;rotatable=0;whiteSpace=wrap;html=1;" parent="pXqdYK-wdsycdL4smANg-14" vertex="1">
          <mxGeometry y="120" width="240" height="30" as="geometry" />
        </mxCell>
        <mxCell id="pXqdYK-wdsycdL4smANg-19" value="記事を整える" style="text;strokeColor=none;fillColor=none;align=left;verticalAlign=middle;spacingLeft=4;spacingRight=4;overflow=hidden;points=[[0,0.5],[1,0.5]];portConstraint=eastwest;rotatable=0;whiteSpace=wrap;html=1;" parent="pXqdYK-wdsycdL4smANg-14" vertex="1">
          <mxGeometry y="150" width="240" height="30" as="geometry" />
        </mxCell>
        <mxCell id="pXqdYK-wdsycdL4smANg-20" value="和訳 &amp;amp; マークダウン化" style="text;strokeColor=none;fillColor=none;align=left;verticalAlign=middle;spacingLeft=4;spacingRight=4;overflow=hidden;points=[[0,0.5],[1,0.5]];portConstraint=eastwest;rotatable=0;whiteSpace=wrap;html=1;" parent="pXqdYK-wdsycdL4smANg-14" vertex="1">
          <mxGeometry y="180" width="240" height="30" as="geometry" />
        </mxCell>
        <mxCell id="pXqdYK-wdsycdL4smANg-21" value="インターネットから一つの記事を情報収集" style="text;strokeColor=none;fillColor=none;align=left;verticalAlign=middle;spacingLeft=4;spacingRight=4;overflow=hidden;points=[[0,0.5],[1,0.5]];portConstraint=eastwest;rotatable=0;whiteSpace=wrap;html=1;" parent="pXqdYK-wdsycdL4smANg-14" vertex="1">
          <mxGeometry y="210" width="240" height="30" as="geometry" />
        </mxCell>
        <mxCell id="pXqdYK-wdsycdL4smANg-24" style="edgeStyle=orthogonalEdgeStyle;rounded=0;orthogonalLoop=1;jettySize=auto;html=1;entryX=0.5;entryY=1;entryDx=0;entryDy=0;" parent="igPosv9aw8RWdcacOeQP-1" source="pXqdYK-wdsycdL4smANg-15" target="pXqdYK-wdsycdL4smANg-10" edge="1">
          <mxGeometry relative="1" as="geometry" />
        </mxCell>
        <mxCell id="pXqdYK-wdsycdL4smANg-25" style="edgeStyle=orthogonalEdgeStyle;rounded=0;orthogonalLoop=1;jettySize=auto;html=1;entryX=0.496;entryY=1.033;entryDx=0;entryDy=0;entryPerimeter=0;" parent="igPosv9aw8RWdcacOeQP-1" source="pXqdYK-wdsycdL4smANg-11" target="pXqdYK-wdsycdL4smANg-21" edge="1">
          <mxGeometry relative="1" as="geometry" />
        </mxCell>
        <mxCell id="pXqdYK-wdsycdL4smANg-26" style="edgeStyle=orthogonalEdgeStyle;rounded=0;orthogonalLoop=1;jettySize=auto;html=1;" parent="igPosv9aw8RWdcacOeQP-1" source="pXqdYK-wdsycdL4smANg-28" target="pXqdYK-wdsycdL4smANg-19" edge="1">
          <mxGeometry relative="1" as="geometry" />
        </mxCell>
        <mxCell id="pXqdYK-wdsycdL4smANg-27" style="edgeStyle=orthogonalEdgeStyle;rounded=0;orthogonalLoop=1;jettySize=auto;html=1;entryX=1;entryY=0.5;entryDx=0;entryDy=0;" parent="igPosv9aw8RWdcacOeQP-1" source="pXqdYK-wdsycdL4smANg-28" target="pXqdYK-wdsycdL4smANg-16" edge="1">
          <mxGeometry relative="1" as="geometry" />
        </mxCell>
        <mxCell id="pXqdYK-wdsycdL4smANg-28" value="Me" style="shape=umlActor;verticalLabelPosition=bottom;verticalAlign=top;html=1;outlineConnect=0;" parent="igPosv9aw8RWdcacOeQP-1" vertex="1">
          <mxGeometry x="611" y="335" width="30" height="60" as="geometry" />
        </mxCell>
        <mxCell id="wKx60gtkJDJb-Gv8d6iq-4" style="edgeStyle=orthogonalEdgeStyle;rounded=0;orthogonalLoop=1;jettySize=auto;html=1;" parent="igPosv9aw8RWdcacOeQP-1" source="wKx60gtkJDJb-Gv8d6iq-1" target="6SzB1PvdnZIplH8IDjRf-2" edge="1">
          <mxGeometry relative="1" as="geometry" />
        </mxCell>
        <mxCell id="wKx60gtkJDJb-Gv8d6iq-1" value="techblog" style="rounded=1;fillColor=#2E3E52;strokeColor=none;shadow=0;gradientColor=none;fontStyle=1;fontColor=#FFFFFF;fontSize=14;" parent="igPosv9aw8RWdcacOeQP-1" vertex="1">
          <mxGeometry x="360" y="170" width="70" height="70" as="geometry" />
        </mxCell>
        <mxCell id="wKx60gtkJDJb-Gv8d6iq-2" style="edgeStyle=orthogonalEdgeStyle;rounded=0;orthogonalLoop=1;jettySize=auto;html=1;entryX=0.5;entryY=0;entryDx=0;entryDy=0;entryPerimeter=0;" parent="igPosv9aw8RWdcacOeQP-1" source="wKx60gtkJDJb-Gv8d6iq-1" target="pXqdYK-wdsycdL4smANg-13" edge="1">
          <mxGeometry relative="1" as="geometry" />
        </mxCell>
        <mxCell id="wKx60gtkJDJb-Gv8d6iq-3" style="edgeStyle=orthogonalEdgeStyle;rounded=0;orthogonalLoop=1;jettySize=auto;html=1;entryX=0;entryY=0.5;entryDx=0;entryDy=0;" parent="igPosv9aw8RWdcacOeQP-1" source="pXqdYK-wdsycdL4smANg-18" target="wKx60gtkJDJb-Gv8d6iq-1" edge="1">
          <mxGeometry relative="1" as="geometry" />
        </mxCell>
        <mxCell id="JHlf3TxTEQhZrFdNS1kI-1" value="状態：圏論からのスキル化" style="swimlane;whiteSpace=wrap;html=1;" parent="1" vertex="1">
          <mxGeometry x="40" y="-3480" width="1380" height="730" as="geometry" />
        </mxCell>
        <mxCell id="JHlf3TxTEQhZrFdNS1kI-25" value="技術スタック" style="swimlane;whiteSpace=wrap;html=1;" parent="JHlf3TxTEQhZrFdNS1kI-1" vertex="1">
          <mxGeometry x="41" y="320" width="189" height="360" as="geometry" />
        </mxCell>
        <mxCell id="JHlf3TxTEQhZrFdNS1kI-5" value="Terraform" style="rounded=1;fillColor=#2E3E52;strokeColor=none;shadow=0;gradientColor=none;fontStyle=1;fontColor=#FFFFFF;fontSize=14;" parent="JHlf3TxTEQhZrFdNS1kI-25" vertex="1">
          <mxGeometry x="14" y="40" width="70" height="70" as="geometry" />
        </mxCell>
        <mxCell id="JHlf3TxTEQhZrFdNS1kI-26" value="Cloud&#xa;formation" style="rounded=1;fillColor=#2E3E52;strokeColor=none;shadow=0;gradientColor=none;fontStyle=1;fontColor=#FFFFFF;fontSize=14;" parent="JHlf3TxTEQhZrFdNS1kI-25" vertex="1">
          <mxGeometry x="14" y="120" width="70" height="70" as="geometry" />
        </mxCell>
        <mxCell id="JHlf3TxTEQhZrFdNS1kI-27" value="VPC" style="rounded=1;fillColor=#2E3E52;strokeColor=none;shadow=0;gradientColor=none;fontStyle=1;fontColor=#FFFFFF;fontSize=14;" parent="JHlf3TxTEQhZrFdNS1kI-25" vertex="1">
          <mxGeometry x="14" y="200" width="70" height="70" as="geometry" />
        </mxCell>
        <mxCell id="JHlf3TxTEQhZrFdNS1kI-4" value="Haskell" style="rounded=1;fillColor=#10739E;strokeColor=none;shadow=0;gradientColor=none;fontStyle=1;fontColor=#FFFFFF;fontSize=14;" parent="JHlf3TxTEQhZrFdNS1kI-25" vertex="1">
          <mxGeometry x="99" y="40" width="71" height="70" as="geometry" />
        </mxCell>
        <mxCell id="7HkvuhLWkOqbQwCYd5de-2" value="Python" style="rounded=1;fillColor=#10739E;strokeColor=none;shadow=0;gradientColor=none;fontStyle=1;fontColor=#FFFFFF;fontSize=14;" parent="JHlf3TxTEQhZrFdNS1kI-25" vertex="1">
          <mxGeometry x="99" y="120" width="71" height="70" as="geometry" />
        </mxCell>
        <mxCell id="7HkvuhLWkOqbQwCYd5de-3" value="Docker" style="rounded=1;fillColor=#2E3E52;strokeColor=none;shadow=0;gradientColor=none;fontStyle=1;fontColor=#FFFFFF;fontSize=14;" parent="JHlf3TxTEQhZrFdNS1kI-25" vertex="1">
          <mxGeometry x="14" y="280" width="70" height="70" as="geometry" />
        </mxCell>
        <mxCell id="gy_MRG555wwDk64535U_-1" value="Arch" style="rounded=1;fillColor=#2E3E52;strokeColor=none;shadow=0;gradientColor=none;fontStyle=1;fontColor=#FFFFFF;fontSize=14;" parent="JHlf3TxTEQhZrFdNS1kI-25" vertex="1">
          <mxGeometry x="100" y="280" width="70" height="70" as="geometry" />
        </mxCell>
        <mxCell id="8p56535Rd03QEzrIcmqj-5" value="Django" style="rounded=1;fillColor=#10739E;strokeColor=none;shadow=0;gradientColor=none;fontStyle=1;fontColor=#FFFFFF;fontSize=14;" parent="JHlf3TxTEQhZrFdNS1kI-25" vertex="1">
          <mxGeometry x="100" y="200" width="71" height="70" as="geometry" />
        </mxCell>
        <mxCell id="T0hhv4CYac_xe9Lu0SNb-1" value="残課題" style="swimlane;whiteSpace=wrap;html=1;" parent="JHlf3TxTEQhZrFdNS1kI-1" vertex="1">
          <mxGeometry x="250" y="320" width="270" height="360" as="geometry" />
        </mxCell>
        <mxCell id="T0hhv4CYac_xe9Lu0SNb-5" value="security" style="rounded=1;fillColor=#2E3E52;strokeColor=none;shadow=0;gradientColor=none;fontStyle=1;fontColor=#FFFFFF;fontSize=14;" parent="T0hhv4CYac_xe9Lu0SNb-1" vertex="1">
          <mxGeometry x="14" y="40" width="70" height="310" as="geometry" />
        </mxCell>
        <mxCell id="7HkvuhLWkOqbQwCYd5de-1" value="DB" style="rounded=1;fillColor=#2E3E52;strokeColor=none;shadow=0;gradientColor=none;fontStyle=1;fontColor=#FFFFFF;fontSize=14;" parent="T0hhv4CYac_xe9Lu0SNb-1" vertex="1">
          <mxGeometry x="95" y="40" width="70" height="310" as="geometry" />
        </mxCell>
        <mxCell id="8p56535Rd03QEzrIcmqj-1" value="エンジニア&#xa;心理学" style="rounded=1;fillColor=#019E95;strokeColor=none;shadow=0;gradientColor=none;fontStyle=1;fontColor=#FFFFFF;fontSize=14;" parent="T0hhv4CYac_xe9Lu0SNb-1" vertex="1">
          <mxGeometry x="180" y="40" width="70.11" height="150" as="geometry" />
        </mxCell>
        <mxCell id="8p56535Rd03QEzrIcmqj-2" value="ブログ" style="rounded=1;fillColor=#333333;strokeColor=none;shadow=0;gradientColor=none;fontStyle=1;fontColor=#FFFFFF;fontSize=14;" parent="JHlf3TxTEQhZrFdNS1kI-1" vertex="1">
          <mxGeometry x="50" y="240" width="160" height="70" as="geometry" />
        </mxCell>
        <mxCell id="8p56535Rd03QEzrIcmqj-3" value="本業" style="rounded=1;fillColor=#333333;strokeColor=none;shadow=0;gradientColor=none;fontStyle=1;fontColor=#FFFFFF;fontSize=14;" parent="JHlf3TxTEQhZrFdNS1kI-1" vertex="1">
          <mxGeometry x="50" y="160" width="70" height="70" as="geometry" />
        </mxCell>
        <mxCell id="8p56535Rd03QEzrIcmqj-4" value="副業" style="rounded=1;fillColor=#333333;strokeColor=none;shadow=0;gradientColor=none;fontStyle=1;fontColor=#FFFFFF;fontSize=14;" parent="JHlf3TxTEQhZrFdNS1kI-1" vertex="1">
          <mxGeometry x="140" y="160" width="70" height="70" as="geometry" />
        </mxCell>
      </root>
    </mxGraphModel>
  </diagram>
</mxfile>
